<?xml version="1.0" encoding="utf-8"?>
<!-- Generator: Adobe Illustrator 17.0.0, SVG Export Plug-In . SVG Version: 6.00 Build 0)  -->
<!DOCTYPE svg PUBLIC "-//W3C//DTD SVG 1.1//EN" "http://www.w3.org/Graphics/SVG/1.1/DTD/svg11.dtd">
<svg version="1.1" id="Layer_1" xmlns="http://www.w3.org/2000/svg" xmlns:xlink="http://www.w3.org/1999/xlink" x="0px" y="0px"
	 width="123px" height="100px" viewBox="0 0 123 100" enable-background="new 0 0 123 100" xml:space="preserve">
<path opacity="0.8" fill="#F7F7F5" enable-background="new    " d="M69.961,0.505c-36.394,0-62.751,18.286-68.399,49.178
	c-5.018,31.528,13.176,49.812,49.576,49.812c39.533,0,65.261-20.176,70.28-51.073C126.442,18.159,108.871,0.505,69.961,0.505z"/>
<path fill="#A03065" d="M81.5,30h-40c-1.578,0-2.857,1.279-2.858,2.857v34.286C38.643,68.721,39.922,70,41.5,70h40
	c1.578,0,2.857-1.279,2.858-2.857V32.857C84.357,31.279,83.078,30,81.5,30z M78.643,57.143l-7.9-9.029
	c-1.01-1.16-2.769-1.281-3.929-0.271c-0.096,0.084-0.187,0.174-0.271,0.271L59,56.736l-2.543-2.907
	c-1.01-1.16-2.769-1.281-3.929-0.271c-0.096,0.084-0.187,0.174-0.271,0.271l-7.9,9.028V35.714h34.286
	C78.643,35.714,78.643,57.143,78.643,57.143z M51.5,44.286c0-2.367,1.918-4.286,4.285-4.286c2.367,0,4.286,1.918,4.286,4.285
	c0,2.367-1.918,4.286-4.285,4.286C53.419,48.571,51.5,46.653,51.5,44.286z"/>
</svg>
