<?xml version="1.0" encoding="utf-8"?>
<!-- Generator: Adobe Illustrator 17.0.0, SVG Export Plug-In . SVG Version: 6.00 Build 0)  -->
<!DOCTYPE svg PUBLIC "-//W3C//DTD SVG 1.1//EN" "http://www.w3.org/Graphics/SVG/1.1/DTD/svg11.dtd">
<svg version="1.1" id="Layer_1" xmlns="http://www.w3.org/2000/svg" xmlns:xlink="http://www.w3.org/1999/xlink" x="0px" y="0px"
	 width="123px" height="100px" viewBox="0 0 123 100" enable-background="new 0 0 123 100" xml:space="preserve">
<path opacity="0.8" fill="#F7F7F5" enable-background="new    " d="M69.922,0.505c-36.394,0-62.751,18.286-68.399,49.178
	c-5.018,31.528,13.176,49.812,49.576,49.812c39.533,0,65.261-20.176,70.28-51.073C126.403,18.159,108.832,0.505,69.922,0.505z"/>
<path fill="#A03065" d="M52.017,31.777c-2.224,0.051-4.151,1.832-4.208,4.378l-1.8,27.672c0.076,3.393,3.474,5.452,6.462,3.837
	l22.247-13.882c1.309-0.758,2.195-2.149,2.195-3.777c0-1.628-0.886-3.019-2.195-3.777l-20.447-13.88
	C53.582,31.964,52.805,31.767,52.017,31.777z"/>
</svg>
